<svg xmlns="http://www.w3.org/2000/svg" fill="none" viewBox="0 0 480 480" id="Mongodb-Icon--Streamline-Svg-Logos" height="480" width="480">
  <desc>
    Mongodb Icon Streamline Icon: https://streamlinehq.com
  </desc>
  <path fill="#01ec64" d="M280.825 57.3845c-19.7255 -23.4038 -36.711999999999996 -47.17345 -40.182 -52.11025 -0.3655 -0.36567000000000005 -0.9135 -0.36567000000000005 -1.2785 0 -3.4705000000000004 4.9368 -20.456500000000002 28.70645 -40.182500000000005 52.11025C29.8692 273.3225 225.8485 419.05 225.8485 419.05l1.644 1.097C228.95350000000002 442.63599999999997 232.60649999999998 475 232.60649999999998 475h14.6115s3.653 -32.1815 5.1145 -54.852999999999994l1.6435 -1.28c0.1825 0.183 196.16250000000002 -145.5445 26.848999999999997 -361.48249999999996Zm-40.913000000000004 358.37350000000004s-8.7665 -7.496 -11.141000000000002 -11.334999999999999v-0.3675l10.5935 -235.136c0 -0.7315 1.096 -0.7315 1.096 0l10.593 235.136v0.3675c-2.374 3.8390000000000004 -11.1415 11.334999999999999 -11.1415 11.334999999999999Z" stroke-width="5"></path>
</svg>