<svg xmlns="http://www.w3.org/2000/svg" fill="none" viewBox="0 0 480 480" id="Mysql--Streamline-Svg-Logos" height="480" width="480">
  <desc>
    Mysql Streamline Icon: https://streamlinehq.com
  </desc>
  <path fill="#00758f" d="m144.81550000000001 291.385 14.283999999999999 46.346c3.2085000000000004 10.522499999999999 4.547 17.868 4.0120000000000005 22.055 7.812 -20.9225 13.27 -43.7235 16.375 -68.401h17.175c-7.384500000000001 40.176 -17.1255 69.3715 -29.216 87.58449999999999 -9.42 14.0335 -19.74 21.0505 -30.977999999999998 21.0505 -2.9955 0 -6.689500000000001 -0.905 -11.073500000000001 -2.7024999999999997v-9.685c2.1415 0.3145 4.6545 0.482 7.544499999999999 0.482 5.2425 0 9.4675 -1.4525 12.682 -4.351999999999999 3.8495 -3.5335 5.776 -7.504499999999999 5.776 -11.9055 0 -3.006 -1.5025 -9.174 -4.494 -18.5045L127 291.385h17.8155ZM35.49865 262.899l26.16285 79.824h0.16049999999999998l26.323500000000003 -79.824h21.506c4.7095 39.5865 7.49 75.80799999999999 8.3445 108.63799999999999h-18.131999999999998c-0.6379999999999999 -30.6905 -2.4055 -59.5495 -5.295 -86.58250000000001h-0.15949999999999998l-27.610999999999997 86.58250000000001h-13.807L25.547900000000002 284.9545h-0.16165c-2.0363 25.962 -3.3173999999999997 54.821 -3.85165 86.58250000000001H5c1.0685 -38.626999999999995 3.74255 -74.837 8.02215 -108.63799999999999h22.4765Z" stroke-width="5"></path>
  <path fill="#f29111" d="M328.58400000000006 261.2865c28.1415 0 42.214 17.98 42.214 53.921 0 19.531 -4.232 34.283500000000004 -12.687999999999999 44.250499999999995 -1.5245 1.8210000000000002 -3.2079999999999997 3.3939999999999997 -4.9815 4.852l19.915499999999998 9.847 -0.0195 -0.001 -7.071 12.2105 -25.935000000000002 -15.1325c-4.2995 1.273 -9.029 1.9095 -14.1845 1.9095 -13.8175 0 -24.139 -4.0275 -30.964 -12.071000000000002 -7.4905 -8.899000000000001 -11.233 -22.908 -11.233 -42.004000000000005 0 -19.4205 4.2235 -34.117000000000004 12.682 -44.0965 7.702999999999999 -9.128 18.461000000000002 -13.6855 32.265 -13.6855Zm-86.1795 0.159c10.058499999999999 0 19.205000000000002 2.6915 27.442500000000003 8.055l-4.1845 9.3235c-7.0485 -2.9965 -13.999500000000001 -4.5005 -20.8525 -4.5005 -5.5605 0 -9.846 1.3385 -12.833000000000002 4.0315 -3.004 2.6695 -4.8615 6.1055 -4.8615 10.2925 0 6.433999999999999 4.5845 12.015 13.0485 16.73 2.277 1.238 5.243 2.889 8.2905 4.6000000000000005l0.6315 0.355c0.10550000000000001 0.059 0.21100000000000002 0.1185 0.31600000000000006 0.1775l0.633 0.356c0.10550000000000001 0.059500000000000004 0.21100000000000002 0.11900000000000001 0.31600000000000006 0.178l0.6315 0.356c6.408 3.6125000000000003 12.437000000000001 7.060499999999999 12.437000000000001 7.060499999999999 8.464 6.008 12.682 12.413 12.682 22.9635 0 9.2135 -3.3760000000000003 16.777 -10.106 22.695 -6.7355 5.8915 -15.784 8.8455 -27.115499999999997 8.8455 -10.598 0 -20.869 -3.3994999999999997 -30.8185 -10.143500000000001l4.6545 -9.332c8.562 4.2909999999999995 16.31 6.433999999999999 23.2665 6.433999999999999 6.525499999999999 0 11.633 -1.456 15.328 -4.333 3.6864999999999997 -2.8975 5.8965 -6.939 5.8965 -12.065 0 -6.4505 -4.4864999999999995 -11.963999999999999 -12.718499999999999 -16.5895 -2.1375 -1.1765 -4.8755 -2.7119999999999997 -7.706499999999999 -4.3125l-0.6305 -0.35650000000000004c-1.158 -0.655 -2.3255 -1.3175000000000001 -3.4675000000000002 -1.967l-0.6205 -0.3525c-5.557499999999999 -3.1614999999999998 -10.363 -5.923500000000001 -10.363 -5.923500000000001 -8.2295 -6.019 -12.355 -12.477 -12.355 -23.118 0 -8.8005 3.0765 -15.914 9.222 -21.326 6.1594999999999995 -5.4225 14.106000000000002 -8.134 23.837000000000003 -8.134Zm161.4665 1.453v95.2745h34.1835v13.363499999999998h-51.52V262.8985h17.3365ZM457.04999999999995 358.2145v2.258h-3.7595v11.052999999999999h-2.8725v-11.052999999999999h-3.9050000000000002v-2.258H457.04999999999995Zm6.9395 0 3.608 9.073 3.3150000000000004 -9.073h4.0725v13.311h-2.7075V361.395l-3.7735000000000003 10.1305h-1.9525000000000001l-3.779 -10.1305h-0.14550000000000002v10.1305h-2.562v-13.311h3.9245ZM326.813 274.647c-16.584 0 -24.88 13.686499999999999 -24.88 41.041999999999994 0 15.669500000000001 2.1985 27.0335 6.587 34.115 4.064 6.555 10.4305 9.825000000000001 19.099 9.825000000000001 16.584 0 24.88 -13.793 24.88 -41.3675 0 -15.4505 -2.1985 -26.716 -6.5815 -33.8005 -4.069999999999999 -6.5405 -10.4335 -9.814 -19.1045 -9.814Z" stroke-width="5"></path>
  <path fill="#00758f" d="M283.341 86.71099999999998c5.5015 -13.517999999999999 24.737499999999997 -3.2815 32.203 1.4415 1.8295 1.1805 3.927 3.6770000000000005 6.025 4.5995 3.2725 0.129 6.5425 0.38399999999999995 9.8205 0.5215000000000001 6.1485 1.4445 11.907499999999999 2.625 16.752 5.385 22.517 13.260000000000002 37.174 26.7725 50.6645 49.090999999999994 2.8810000000000002 4.7285 4.3214999999999995 9.844000000000001 6.6765 14.96 3.267 7.6255 6.9395 15.6295 10.7325 22.841 1.698 3.4185 3.0125 7.22 5.3705 10.1065 0.9205000000000001 1.32 3.5355 1.709 5.099 2.4979999999999998 4.322 2.237 9.558 3.935 13.622 6.561 7.5915 4.7325 14.931000000000001 10.3725 21.6025 16.146 2.4865 2.2295000000000003 4.1815 5.3845 6.5505 7.742v1.19c-2.1029999999999998 0.645 -4.1985 1.306 -6.296 1.835 -4.582 1.178 -8.6405 0.9115 -13.085 2.0895 -2.747 0.796 -6.1565 1.8475 -9.037500000000001 2.114 0.1285 0.1295 0.2655 0.26849999999999996 0.2655 0.26849999999999996 1.695 4.8420000000000005 10.864 8.7805 15.057 11.676 5.0935 3.6755 9.8125 8.1345 13.611 13.253 1.3114999999999999 1.3064999999999998 2.6235000000000004 2.4955 3.93 3.798 0.9115 1.32 1.169 3.027 2.092 4.205v0.3975c-1.0225 -0.361 -1.7574999999999998 -1.049 -2.455 -1.7690000000000001l-0.416 -0.4335c-0.41500000000000004 -0.433 -0.8350000000000001 -0.856 -1.3135 -1.206 -2.8895 -1.974 -5.7589999999999995 -4.335 -8.6485 -6.17 -4.968 -3.1515 -10.73 -4.9815 -15.831999999999999 -8.145 -2.8834999999999997 -1.8375 -5.6335 -3.93 -8.383000000000001 -6.031 -2.492 -1.8425 -5.236 -5.3815 -6.8025 -8.006499999999999 -0.9229999999999999 -1.45 -1.049 -3.1550000000000002 -2.1035 -4.2035 0.189 -1.7525 1.7945 -2.274 3.4139999999999997 -2.7015000000000002l0.3735 -0.098c0.5585 -0.14550000000000002 1.1055 -0.29000000000000004 1.583 -0.4815 6.8055 -2.8899999999999997 14.92 -3.9385 25.398 -3.6755 -0.39449999999999996 -2.6315 -6.942500000000001 -5.909 -9.032 -7.4845 -4.1955 -3.024 -8.6375 -6.179 -13.0875 -8.931000000000001 -2.358 -1.4415 -6.422499999999999 -2.4935 -9.035 -3.671 -3.5355 -1.4449999999999998 -11.392500000000002 -2.889 -13.3505 -5.641 -3.3274999999999997 -4.338 -5.718 -9.512500000000001 -8.039 -14.74l-0.6320000000000001 -1.4264999999999999c-0.2105 -0.47550000000000003 -0.421 -0.9510000000000001 -0.6320000000000001 -1.4255 -2.7439999999999998 -6.294499999999999 -6.151 -12.857000000000001 -8.900500000000001 -19.302 -1.4380000000000002 -3.144 -2.098 -5.9035 -3.673 -8.9185 -9.552 -18.5045 -23.691499999999998 -33.997 -40.835 -44.893 -5.6335 -3.545 -11.915500000000002 -6.826 -18.8495 -9.056 -3.93 -1.186 -8.646 -0.53 -12.8335 -1.4415h-2.7550000000000003c-2.3525 -0.6615 -4.316 -3.1550000000000002 -6.151 -4.4705 -4.053 -2.7510000000000003 -8.1115 -4.5995 -12.959 -6.5625 -1.698 -0.7879999999999999 -6.548 -2.6224999999999996 -8.24 -1.178 -1.049 0.26349999999999996 -1.5805 0.659 -1.8379999999999999 1.711 -1.0430000000000001 1.5705 -0.126 3.9345000000000003 0.523 5.382 1.9665 4.1955 4.7135 6.6884999999999994 7.205500000000001 10.2335 2.218 3.144 4.9735000000000005 6.689 6.5455 10.107999999999999 3.3925 7.348 4.973 15.4895 8.116999999999999 22.8375 1.1665 2.7625 3.0095 5.9065 4.7075 8.4 1.4380000000000002 1.9769999999999999 4.053 3.4074999999999998 4.8445 5.911999999999999 1.5779999999999998 2.625 -2.3605 11.288 -3.2725 14.0395 -3.4094999999999995 10.765 -2.7495000000000003 25.728 1.1775 35.059999999999995 0.07 0.16299999999999998 0.14 0.327 0.2095 0.492l0.2095 0.498c1.4335 3.4175 2.9685 7.0975 6.781000000000001 8.0535 0.263 -0.2605 0 -0.1235 0.52 -0.2605 0.9235 -7.223000000000001 1.1835 -14.1785 3.673 -19.8295 1.4375 -3.533 4.31 -6.031 6.2795000000000005 -8.9155 1.3114999999999999 0.7855 1.3114999999999999 3.1555 2.0949999999999998 4.723 1.7035 4.0665000000000004 3.5325 8.525500000000001 5.6335 12.604 4.31 8.4 9.1605 16.543 14.6565 23.890500000000003 1.8405 2.6235000000000004 4.452999999999999 5.513 6.8084999999999996 7.877 1.049 0.915 2.2235 1.444 3.0125 2.6215h0.257v0.39649999999999996c-3.927 -1.4480000000000002 -6.416500000000001 -5.5105 -9.549 -7.8825 -5.8965 -4.4585 -12.959 -11.1545 -17.0235 -17.5795 -1.7005000000000001 -3.688 -3.5385 -7.223000000000001 -5.3705 -10.892999999999999v-0.2655c-0.7829999999999999 1.0485 -0.52 2.0895 -0.9115 3.6755 -1.701 6.559 -0.392 14.0415 -6.2825 16.4 -6.677 2.7634999999999996 -11.6585 -4.4585 -13.748000000000001 -7.7395000000000005 -6.679500000000001 -10.892999999999999 -8.5085 -29.2685 -3.7985 -44.102 1.046 -3.2840000000000003 1.189 -7.2219999999999995 3.0155 -9.844000000000001 -0.39449999999999996 -2.37 -2.221 -3.0180000000000002 -3.2784999999999997 -4.4705 -1.832 -2.482 -3.4010000000000002 -5.3735 -4.835999999999999 -8.130500000000001 -2.7550000000000003 -5.385 -4.716 -11.8185 -6.808 -17.593 -0.9205000000000001 -2.3585000000000003 -1.1835 -4.726 -2.101 -6.958 -1.5635 -3.408 -4.4475 -6.826499999999999 -6.671 -9.8415 -3.0125 -4.333 -11.7845 -12.729999999999999 -8.2485 -21.267Zm42.9355 25.7165c0.34950000000000003 0.3505 0.772 0.6575 1.2089999999999999 0.959l0.5269999999999999 0.36200000000000004c0.7025000000000001 0.48550000000000004 1.382 0.9984999999999999 1.7995 1.6969999999999998 0.66 0.9225 0.7835000000000001 1.834 1.575 2.7594999999999996 0 3.1555 -0.915 5.253 -2.761 6.5600000000000005 0 0 -0.1255 0.1375 -0.2545 0.2665 -1.046 -2.1035 -1.9635 -4.1955 -3.0180000000000002 -6.2965 -1.298 -1.834 -3.133 -3.2895000000000003 -4.1899999999999995 -5.3845h-0.2545v-0.26349999999999996c1.5805 -0.39 3.1464999999999996 -0.6595 5.3675 -0.6595Z" stroke-width="5"></path>
</svg>