<svg xmlns="http://www.w3.org/2000/svg" fill="none" viewBox="0 0 480 480" id="Postman-Icon--Streamline-Svg-Logos" height="480" width="480">
  <desc>
    Postman Icon Streamline Icon: https://streamlinehq.com
  </desc>
  <path fill="#ff6c37" d="M473.078 269.8395C489.525 141.083 398.5965 23.369049999999998 270.0745 6.922000000000001 141.5525 -9.52505 23.369049999999998 81.4035 6.922000000000001 209.9255c-16.44705 128.5215 74.4815 246.47050000000002 203.00350000000003 263.1525 128.75650000000002 16.447 246.47050000000002 -74.4815 263.1525 -203.2385Z" stroke-width="5"></path>
  <path fill="#ffffff" d="M324.81699999999995 155.885 225.66500000000002 255.03699999999998l-27.959999999999997 -27.959999999999997C295.2125 129.5695 304.846 138.028 324.81699999999995 155.885Z" stroke-width="5"></path>
  <path fill="#ff6c37" d="M225.669 257.387c-0.705 0 -1.1749999999999998 -0.235 -1.6445 -0.705l-28.195 -27.959999999999997c-0.94 -0.94 -0.94 -2.3495 0 -3.2895000000000003 99.152 -99.152 109.49 -89.754 130.4015 -70.957 0.47 0.47 0.705 0.9395 0.705 1.6445 0 0.705 -0.235 1.1749999999999998 -0.705 1.645L227.07899999999998 256.682c-0.235 0.47 -0.94 0.705 -1.41 0.705Zm-24.6705 -30.3095 24.6705 24.6705L321.297 156.12c-17.387 -15.507 -29.134999999999998 -20.2065 -120.29849999999999 70.9575Z" stroke-width="5"></path>
  <path fill="#ffffff" d="m254.0955 283.4645 -27.0205 -27.02 99.1525 -99.152c26.549999999999997 26.785 -13.158000000000001 70.2525 -72.13199999999999 126.172Z" stroke-width="5"></path>
  <path fill="#ff6c37" d="M254.098 285.8175c-0.7045 0 -1.1745 -0.235 -1.6445 -0.7045l-27.02 -27.0205c-0.47 -0.4695 -0.47 -0.9395 -0.47 -1.6445 0 -0.705 0.235 -1.1749999999999998 0.705 -1.6445l99.152 -99.1525c0.9395 -0.9395 2.3495 -0.9395 3.2895000000000003 0 6.1085 5.638999999999999 9.398 13.6275 9.163 21.851 -0.47 26.0805 -30.0745 59.209500000000006 -81.295 107.611 -0.705 0.4695 -1.41 0.7045 -1.88 0.7045Zm-23.7305 -29.3695c15.037 15.271999999999998 21.381 21.381 23.7305 23.7305 39.473 -37.593 77.771 -76.12599999999999 78.006 -102.6765 0.235 -6.1085 -2.1145 -12.2175 -6.109 -16.9165L230.3675 256.448Z" stroke-width="5"></path>
  <path fill="#ffffff" d="m198.1755 227.78050000000002 19.9715 19.9715c0.47 0.47 0.47 0.94 0 1.4095 -0.235 0.235 -0.235 0.235 -0.47 0.235l-41.3525 8.9285c-2.1145 0.235 -3.9939999999999998 -1.1745 -4.464 -3.2895000000000003 -0.235 -1.1745 0.235 -2.3495 0.94 -3.0545l23.9655 -23.9655c0.47 -0.47 1.1745 -0.705 1.4095 -0.235Z" stroke-width="5"></path>
  <path fill="#ff6c37" d="M175.6205 260.6745c-3.524 0 -6.109 -2.8194999999999997 -6.109 -6.343999999999999 0 -1.6445 0.705 -3.2895000000000003 1.88 -4.464l23.9655 -23.965999999999998c1.41 -1.1745 3.2895000000000003 -1.1745 4.699 0l19.9715 19.9715c1.41 1.1749999999999998 1.41 3.2895000000000003 0 4.699 -0.47 0.47 -0.9395 0.705 -1.6445 0.94l-41.3525 8.9285c-0.47 0 -0.94 0.235 -1.41 0.235Zm21.851 -30.3095 -23.0255 23.0255c-0.47 0.47 -0.705 1.1749999999999998 -0.235 1.88 0.235 0.7045 0.9395 0.9395 1.6445 0.7045l38.768 -8.4585 -17.152 -17.1515Z" stroke-width="5"></path>
  <path fill="#ffffff" d="M377.2165 100.90400000000001c-15.037 -14.567499999999999 -39.238 -14.0975 -53.80499999999999 1.1745 -14.567499999999999 15.2725 -14.0975 39.238 1.1745 53.8055 12.453000000000001 11.982999999999999 31.2495 14.0975 46.052 5.1690000000000005l-26.7855 -26.785 33.364 -33.364Z" stroke-width="5"></path>
  <path fill="#ff6c37" d="M350.901 168.8065c-22.320999999999998 0 -40.412499999999994 -18.092 -40.412499999999994 -40.413s18.0915 -40.412499999999994 40.412499999999994 -40.412499999999994c10.338000000000001 0 20.4415 3.9939999999999998 27.959999999999997 11.277999999999999 0.47 0.47 0.705 0.94 0.705 1.6445 0 0.705 -0.235 1.1749999999999998 -0.705 1.645l-31.719499999999996 31.719 24.905499999999996 24.905499999999996c0.94 0.94 0.94 2.3495 0 3.2895000000000003 -0.235 0.235 -0.235 0.235 -0.4695 0.47 -6.109 3.7595 -13.392999999999999 5.8740000000000006 -20.6765 5.8740000000000006Zm0 -75.89150000000001c-19.7365 0 -35.713499999999996 15.976999999999999 -35.4785 35.713499999999996 0 19.7365 15.976999999999999 35.713499999999996 35.713499999999996 35.4785 5.404 0 10.808 -1.1745 15.742 -3.7590000000000003l-24.6705 -24.4355c-0.47 -0.47 -0.705 -0.94 -0.705 -1.645 0 -0.705 0.235 -1.1745 0.705 -1.6445l31.4845 -31.4845c-6.343999999999999 -5.404 -14.3325 -8.2235 -22.791 -8.2235Z" stroke-width="5"></path>
  <path fill="#ffffff" d="m377.9165 101.6075 -0.47 -0.47 -33.599000000000004 33.129 26.5505 26.5505c2.5845000000000002 -1.645 5.1690000000000005 -3.5244999999999997 7.2835 -5.638999999999999 15.0375 -14.8025 15.0375 -38.768 0.235 -53.5705Z" stroke-width="5"></path>
  <path fill="#ff6c37" d="M370.636 163.40050000000002c-0.7045 0 -1.1745 -0.235 -1.6445 -0.705l-26.785 -26.785c-0.47 -0.47 -0.705 -0.94 -0.705 -1.6445 0 -0.705 0.235 -1.1749999999999998 0.705 -1.645l33.364 -33.364c0.9395 -0.9395 2.3495 -0.9395 3.289 0l0.705 0.47c15.742 15.742 15.7425 41.1175 0.235 57.094500000000004 -2.3495 2.3499999999999996 -4.934 4.4645 -7.7535 6.109 -0.705 0.235 -1.1749999999999998 0.47 -1.41 0.47Zm-23.4955 -29.134500000000003 23.7305 23.7305c1.88 -1.1749999999999998 3.7595 -2.8194999999999997 5.1690000000000005 -4.229 13.392999999999999 -13.392999999999999 14.0975 -35.244 1.1749999999999998 -49.341499999999996l-30.0745 29.84Z" stroke-width="5"></path>
  <path fill="#ffffff" d="M328.81300000000005 160.1155c-5.638999999999999 -5.638999999999999 -14.8025 -5.638999999999999 -20.4415 0L219.79250000000002 248.6945l14.8025 14.8025 93.748 -82.2355c6.109 -5.1690000000000005 6.5785 -14.3325 1.4095 -20.441 -0.4695 -0.235 -0.7045 -0.47 -0.9395 -0.705Z" stroke-width="5"></path>
  <path fill="#ff6c37" d="M234.359 265.84499999999997c-0.705 0 -1.1749999999999998 -0.235 -1.645 -0.705l-14.802 -14.8025c-0.94 -0.9395 -0.94 -2.3495 0 -3.289l88.57900000000001 -88.57900000000001c6.5785 -6.579000000000001 17.152 -6.579000000000001 23.7305 0 6.579000000000001 6.5785 6.579000000000001 17.1515 0 23.7305 -0.235 0.235 -0.47 0.47 -0.7045 0.705L235.76850000000002 265.14c-0.235 0.47 -0.7045 0.705 -1.4095 0.705Zm-11.277999999999999 -17.152 11.513 11.513 92.1035 -80.82549999999999c5.1690000000000005 -4.229 5.638999999999999 -11.982999999999999 1.4095 -17.152 -4.229 -5.1690000000000005 -11.982999999999999 -5.638999999999999 -17.152 -1.4095 -0.235 0.235 -0.47 0.47 -0.9395 0.7045L223.081 248.69299999999998Z" stroke-width="5"></path>
  <path fill="#ffffff" d="M151.889 349.491c-0.94 0.47 -1.4095 1.41 -1.1749999999999998 2.3495l3.9945000000000004 16.917c0.94 2.3499999999999996 -0.47 5.1695 -3.0545 5.8740000000000006 -1.8795000000000002 0.705 -3.9939999999999998 0 -5.1690000000000005 -1.4095l-25.8455 -25.6105 84.35000000000001 -84.35000000000001 29.134500000000003 0.47 19.7365 19.7365c-4.699 3.9945000000000004 -33.129 31.4845 -101.9715 66.023Z" stroke-width="5"></path>
  <path fill="#ff6c37" d="M150.009 376.9795c-1.8795000000000002 0 -3.7590000000000003 -0.7045 -4.934 -2.1145l-25.6105 -25.6105c-0.47 -0.4695 -0.7045 -0.9395 -0.7045 -1.6445 0 -0.705 0.2345 -1.1749999999999998 0.7045 -1.6445l84.35000000000001 -84.35000000000001c0.47 -0.47 1.1745 -0.705 1.6445 -0.705l29.134999999999998 0.47c0.705 0 1.1745 0.235 1.6445 0.705l19.7365 19.7365c0.47 0.47 0.705 1.1745 0.705 1.8795000000000002 0 0.705 -0.235 1.1749999999999998 -0.94 1.6445l-1.6445 1.41c-24.905499999999996 21.851 -58.7395 43.702 -100.79700000000001 64.6135l3.9945000000000004 16.682c0.7045 3.0545 -0.705 6.3435 -3.5244999999999997 7.988499999999999 -1.41 0.705 -2.5845000000000002 0.9395 -3.7595 0.9395Zm-25.845 -29.3695 24.200499999999998 23.9655c0.705 1.1749999999999998 2.1145 1.645 3.2895000000000003 0.94 1.1745 -0.705 1.6445 -2.1145 0.9395 -3.2895000000000003l-3.9939999999999998 -16.917c-0.47 -2.1145 0.47 -3.9939999999999998 2.3495 -4.934 41.587500000000006 -20.911 75.1865 -42.527499999999996 99.857 -63.908500000000004l-17.387 -17.387 -27.02 -0.4695 -82.235 82Z" stroke-width="5"></path>
  <path fill="#ffffff" d="m100.6675 367.816 20.2065 -20.206 30.0745 30.0745 -47.9315 -3.2895000000000003c-2.1145 -0.235 -3.5244999999999997 -2.1145 -3.2895000000000003 -4.229 0 -0.94 0.235 -1.88 0.94 -2.3499999999999996Z" stroke-width="5"></path>
  <path fill="#ff6c37" d="m150.953 379.798 -48.1665 -3.2895000000000003c-3.5244999999999997 -0.2345 -5.8740000000000006 -3.289 -5.638999999999999 -6.8135 0.235 -1.41 0.705 -2.8194999999999997 1.8795000000000002 -3.7595l20.2065 -20.206c0.94 -0.94 2.3495 -0.94 3.2895000000000003 0l30.0745 30.0745c0.705 0.7045 0.94 1.6445 0.47 2.5845000000000002 -0.47 0.9395 -1.1749999999999998 1.4095 -2.1145 1.4095Zm-30.075 -28.899499999999996 -18.5615 18.5615c-0.705 0.47 -0.705 1.6445 0 2.1145 0.235 0.235 0.47 0.47 0.94 0.47l41.587500000000006 2.8194999999999997 -23.965999999999998 -23.9655Z" stroke-width="5"></path>
  <path fill="#ff6c37" d="M196.76850000000002 274.067c-1.4095 0 -2.3495 -1.1745 -2.3495 -2.3495 0 -0.705 0.235 -1.1745 0.705 -1.6445l22.790499999999998 -22.791c0.94 -0.94 2.3499999999999996 -0.94 3.2895000000000003 0l14.8025 14.8025c0.705 0.7045 0.94 1.4095 0.705 2.3495 -0.235 0.705 -0.94 1.4095 -1.88 1.6445l-37.593 7.988499999999999 -0.47 0Zm22.791 -21.851 -15.5075 15.5075 25.3755 -5.404 -9.868 -10.1035Z" stroke-width="5"></path>
  <path fill="#ffffff" d="m234.1265 263.73 -25.845 5.638999999999999c-1.88 0.47 -3.7595 -0.705 -4.2295 -2.5845000000000002 -0.235 -1.1749999999999998 0 -2.3495 0.94 -3.2895000000000003l14.3325 -14.3325 14.802 14.567499999999999Z" stroke-width="5"></path>
  <path fill="#ff6c37" d="M207.81 271.7175c-3.2895000000000003 0 -5.8740000000000006 -2.5845000000000002 -5.8740000000000006 -5.8740000000000006 0 -1.6445 0.705 -3.0545 1.6445 -4.229l14.3325 -14.3325c0.94 -0.94 2.3495 -0.94 3.2895000000000003 0l14.8025 14.8025c0.705 0.7045 0.9395 1.4095 0.705 2.3495 -0.235 0.705 -0.94 1.4095 -1.88 1.6445l-25.845 5.638999999999999 -1.1749999999999998 0Zm11.748000000000001 -19.5015 -12.687999999999999 12.687999999999999c-0.47 0.47 -0.47 0.9395 -0.235 1.4095 0.235 0.47 0.705 0.705 1.41 0.705l21.616 -4.699 -10.103 -10.1035Z" stroke-width="5"></path>
  <path fill="#ff6c37" d="M378.1545 124.1675c-0.47 -1.4095 -2.1149999999999998 -2.1145 -3.5244999999999997 -1.6445 -1.41 0.47 -2.1145 2.1145 -1.6445 3.5244999999999997 0 0.2345 0.235 0.4695 0.235 0.7045 1.4095 2.8194999999999997 0.9395 6.343999999999999 -0.94 8.9285 -0.94 1.1749999999999998 -0.705 2.8194999999999997 0.235 3.7595 1.1745 0.9395 2.8194999999999997 0.7045 3.7590000000000003 -0.47 3.5244999999999997 -4.4645 4.2295 -10.103 1.88 -14.8025Z" stroke-width="5"></path>
</svg>